<mxfile host="Electron" modified="2024-01-25T16:59:25.417Z" agent="Mozilla/5.0 (Windows NT 10.0; Win64; x64) AppleWebKit/537.36 (KHTML, like Gecko) draw.io/22.0.2 Chrome/114.0.5735.289 Electron/25.8.4 Safari/537.36" etag="l6qLnLXUBsq1bV57QvP4" version="22.0.2" type="device">
  <diagram name="Page-1" id="lztvk4v1WWPqibJxazna">
    <mxGraphModel dx="2268" dy="820" grid="1" gridSize="10" guides="1" tooltips="1" connect="1" arrows="1" fold="1" page="1" pageScale="1" pageWidth="850" pageHeight="1100" math="0" shadow="0">
      <root>
        <mxCell id="0" />
        <mxCell id="1" parent="0" />
        <mxCell id="oJTs6SeQbGOkC4KuSfUN-1" value="Students" style="rounded=0;whiteSpace=wrap;html=1;fontSize=14;" parent="1" vertex="1">
          <mxGeometry x="30" y="440" width="120" height="60" as="geometry" />
        </mxCell>
        <mxCell id="oJTs6SeQbGOkC4KuSfUN-2" value="Courses" style="rounded=0;whiteSpace=wrap;html=1;fontSize=14;" parent="1" vertex="1">
          <mxGeometry x="690" y="440" width="120" height="60" as="geometry" />
        </mxCell>
        <mxCell id="oJTs6SeQbGOkC4KuSfUN-3" value="Departments" style="rounded=0;whiteSpace=wrap;html=1;fontSize=14;" parent="1" vertex="1">
          <mxGeometry x="347.5" y="740" width="120" height="60" as="geometry" />
        </mxCell>
        <mxCell id="oJTs6SeQbGOkC4KuSfUN-5" value="First Name" style="ellipse;whiteSpace=wrap;html=1;fontSize=14;" parent="1" vertex="1">
          <mxGeometry x="-87.5" y="310" width="110" height="50" as="geometry" />
        </mxCell>
        <mxCell id="oJTs6SeQbGOkC4KuSfUN-6" value="Last Name" style="ellipse;whiteSpace=wrap;html=1;fontSize=14;" parent="1" vertex="1">
          <mxGeometry x="30" y="340" width="110" height="50" as="geometry" />
        </mxCell>
        <mxCell id="oJTs6SeQbGOkC4KuSfUN-7" value="Email" style="ellipse;whiteSpace=wrap;html=1;fontSize=14;" parent="1" vertex="1">
          <mxGeometry x="-250" y="450" width="110" height="50" as="geometry" />
        </mxCell>
        <mxCell id="oJTs6SeQbGOkC4KuSfUN-8" value="&lt;u style=&quot;font-size: 14px;&quot;&gt;Student ID&lt;/u&gt;" style="ellipse;whiteSpace=wrap;html=1;fontSize=14;" parent="1" vertex="1">
          <mxGeometry x="-190" y="510" width="110" height="50" as="geometry" />
        </mxCell>
        <mxCell id="oJTs6SeQbGOkC4KuSfUN-9" value="" style="endArrow=none;html=1;rounded=0;entryX=0;entryY=1;entryDx=0;entryDy=0;" parent="1" source="oJTs6SeQbGOkC4KuSfUN-8" target="oJTs6SeQbGOkC4KuSfUN-1" edge="1">
          <mxGeometry width="50" height="50" relative="1" as="geometry">
            <mxPoint x="290" y="460" as="sourcePoint" />
            <mxPoint x="340" y="410" as="targetPoint" />
          </mxGeometry>
        </mxCell>
        <mxCell id="oJTs6SeQbGOkC4KuSfUN-10" value="" style="endArrow=none;html=1;rounded=0;entryX=0;entryY=0.5;entryDx=0;entryDy=0;" parent="1" source="oJTs6SeQbGOkC4KuSfUN-7" target="oJTs6SeQbGOkC4KuSfUN-1" edge="1">
          <mxGeometry width="50" height="50" relative="1" as="geometry">
            <mxPoint x="290" y="460" as="sourcePoint" />
            <mxPoint x="340" y="410" as="targetPoint" />
          </mxGeometry>
        </mxCell>
        <mxCell id="oJTs6SeQbGOkC4KuSfUN-11" value="" style="endArrow=none;html=1;rounded=0;" parent="1" source="oJTs6SeQbGOkC4KuSfUN-1" target="oJTs6SeQbGOkC4KuSfUN-5" edge="1">
          <mxGeometry width="50" height="50" relative="1" as="geometry">
            <mxPoint x="290" y="460" as="sourcePoint" />
            <mxPoint x="340" y="410" as="targetPoint" />
          </mxGeometry>
        </mxCell>
        <mxCell id="oJTs6SeQbGOkC4KuSfUN-12" value="" style="endArrow=none;html=1;rounded=0;entryX=0.5;entryY=1;entryDx=0;entryDy=0;" parent="1" source="oJTs6SeQbGOkC4KuSfUN-1" target="oJTs6SeQbGOkC4KuSfUN-6" edge="1">
          <mxGeometry width="50" height="50" relative="1" as="geometry">
            <mxPoint x="290" y="460" as="sourcePoint" />
            <mxPoint x="340" y="410" as="targetPoint" />
          </mxGeometry>
        </mxCell>
        <mxCell id="oJTs6SeQbGOkC4KuSfUN-13" value="Gender" style="ellipse;whiteSpace=wrap;html=1;fontSize=14;" parent="1" vertex="1">
          <mxGeometry x="-110" y="560" width="110" height="50" as="geometry" />
        </mxCell>
        <mxCell id="oJTs6SeQbGOkC4KuSfUN-14" value="" style="endArrow=none;html=1;rounded=0;entryX=0.358;entryY=1.017;entryDx=0;entryDy=0;entryPerimeter=0;exitX=0.709;exitY=0.02;exitDx=0;exitDy=0;exitPerimeter=0;" parent="1" source="oJTs6SeQbGOkC4KuSfUN-13" target="oJTs6SeQbGOkC4KuSfUN-1" edge="1">
          <mxGeometry width="50" height="50" relative="1" as="geometry">
            <mxPoint x="290" y="460" as="sourcePoint" />
            <mxPoint x="340" y="410" as="targetPoint" />
          </mxGeometry>
        </mxCell>
        <mxCell id="oJTs6SeQbGOkC4KuSfUN-15" value="&lt;u style=&quot;font-size: 14px;&quot;&gt;Course ID&lt;/u&gt;" style="ellipse;whiteSpace=wrap;html=1;fontSize=14;" parent="1" vertex="1">
          <mxGeometry x="750" y="330" width="110" height="50" as="geometry" />
        </mxCell>
        <mxCell id="oJTs6SeQbGOkC4KuSfUN-16" value="Course Name" style="ellipse;whiteSpace=wrap;html=1;fontSize=14;" parent="1" vertex="1">
          <mxGeometry x="860" y="370" width="110" height="50" as="geometry" />
        </mxCell>
        <mxCell id="oJTs6SeQbGOkC4KuSfUN-17" value="" style="endArrow=none;html=1;rounded=0;entryX=0.4;entryY=1.02;entryDx=0;entryDy=0;entryPerimeter=0;exitX=0.5;exitY=0;exitDx=0;exitDy=0;" parent="1" source="oJTs6SeQbGOkC4KuSfUN-2" target="oJTs6SeQbGOkC4KuSfUN-15" edge="1">
          <mxGeometry width="50" height="50" relative="1" as="geometry">
            <mxPoint x="530" y="460" as="sourcePoint" />
            <mxPoint x="580" y="410" as="targetPoint" />
          </mxGeometry>
        </mxCell>
        <mxCell id="oJTs6SeQbGOkC4KuSfUN-18" value="" style="endArrow=none;html=1;rounded=0;entryX=0.364;entryY=1;entryDx=0;entryDy=0;entryPerimeter=0;exitX=1;exitY=0;exitDx=0;exitDy=0;" parent="1" source="oJTs6SeQbGOkC4KuSfUN-2" target="oJTs6SeQbGOkC4KuSfUN-16" edge="1">
          <mxGeometry width="50" height="50" relative="1" as="geometry">
            <mxPoint x="530" y="460" as="sourcePoint" />
            <mxPoint x="580" y="410" as="targetPoint" />
          </mxGeometry>
        </mxCell>
        <mxCell id="oJTs6SeQbGOkC4KuSfUN-19" value="&lt;u style=&quot;font-size: 14px;&quot;&gt;Department ID&lt;/u&gt;" style="ellipse;whiteSpace=wrap;html=1;fontSize=14;" parent="1" vertex="1">
          <mxGeometry x="427.5" y="850" width="110" height="50" as="geometry" />
        </mxCell>
        <mxCell id="oJTs6SeQbGOkC4KuSfUN-20" value="Department Name" style="ellipse;whiteSpace=wrap;html=1;fontSize=14;" parent="1" vertex="1">
          <mxGeometry x="282.5" y="850" width="110" height="50" as="geometry" />
        </mxCell>
        <mxCell id="oJTs6SeQbGOkC4KuSfUN-21" value="" style="endArrow=none;html=1;rounded=0;entryX=0.5;entryY=0;entryDx=0;entryDy=0;exitX=0.4;exitY=0.967;exitDx=0;exitDy=0;exitPerimeter=0;" parent="1" source="oJTs6SeQbGOkC4KuSfUN-3" target="oJTs6SeQbGOkC4KuSfUN-20" edge="1">
          <mxGeometry width="50" height="50" relative="1" as="geometry">
            <mxPoint x="347.5" y="990" as="sourcePoint" />
            <mxPoint x="117.5" y="960" as="targetPoint" />
          </mxGeometry>
        </mxCell>
        <mxCell id="oJTs6SeQbGOkC4KuSfUN-22" value="" style="endArrow=none;html=1;rounded=0;entryX=0.617;entryY=1;entryDx=0;entryDy=0;entryPerimeter=0;" parent="1" source="oJTs6SeQbGOkC4KuSfUN-19" target="oJTs6SeQbGOkC4KuSfUN-3" edge="1">
          <mxGeometry width="50" height="50" relative="1" as="geometry">
            <mxPoint x="147.5" y="880" as="sourcePoint" />
            <mxPoint x="197.5" y="830" as="targetPoint" />
          </mxGeometry>
        </mxCell>
        <mxCell id="oJTs6SeQbGOkC4KuSfUN-25" value="HAS" style="rhombus;whiteSpace=wrap;html=1;fontSize=14;" parent="1" vertex="1">
          <mxGeometry x="710" y="609" width="80" height="80" as="geometry" />
        </mxCell>
        <mxCell id="oJTs6SeQbGOkC4KuSfUN-26" value="" style="endArrow=none;html=1;rounded=0;entryX=0.5;entryY=1;entryDx=0;entryDy=0;exitX=1;exitY=0.5;exitDx=0;exitDy=0;" parent="1" source="oJTs6SeQbGOkC4KuSfUN-3" target="oJTs6SeQbGOkC4KuSfUN-25" edge="1">
          <mxGeometry width="50" height="50" relative="1" as="geometry">
            <mxPoint x="410" y="520" as="sourcePoint" />
            <mxPoint x="460" y="470" as="targetPoint" />
          </mxGeometry>
        </mxCell>
        <mxCell id="oJTs6SeQbGOkC4KuSfUN-27" value="" style="endArrow=none;html=1;rounded=0;entryX=0.5;entryY=1;entryDx=0;entryDy=0;" parent="1" source="oJTs6SeQbGOkC4KuSfUN-25" target="oJTs6SeQbGOkC4KuSfUN-2" edge="1">
          <mxGeometry width="50" height="50" relative="1" as="geometry">
            <mxPoint x="540" y="510" as="sourcePoint" />
            <mxPoint x="590" y="460" as="targetPoint" />
          </mxGeometry>
        </mxCell>
        <mxCell id="oJTs6SeQbGOkC4KuSfUN-28" value="N" style="text;html=1;strokeColor=none;fillColor=none;align=center;verticalAlign=middle;whiteSpace=wrap;rounded=0;fontSize=14;" parent="1" vertex="1">
          <mxGeometry x="650" y="670" width="60" height="30" as="geometry" />
        </mxCell>
        <mxCell id="oJTs6SeQbGOkC4KuSfUN-29" value="M" style="text;html=1;strokeColor=none;fillColor=none;align=center;verticalAlign=middle;whiteSpace=wrap;rounded=0;" parent="1" vertex="1">
          <mxGeometry x="700" y="560" width="60" height="30" as="geometry" />
        </mxCell>
        <mxCell id="oJTs6SeQbGOkC4KuSfUN-32" value="Assigned" style="rhombus;whiteSpace=wrap;html=1;fontSize=14;" parent="1" vertex="1">
          <mxGeometry x="65" y="609" width="80" height="80" as="geometry" />
        </mxCell>
        <mxCell id="oJTs6SeQbGOkC4KuSfUN-33" value="" style="endArrow=none;html=1;rounded=0;entryX=0.5;entryY=1;entryDx=0;entryDy=0;exitX=0;exitY=0.5;exitDx=0;exitDy=0;" parent="1" source="oJTs6SeQbGOkC4KuSfUN-3" target="oJTs6SeQbGOkC4KuSfUN-32" edge="1">
          <mxGeometry width="50" height="50" relative="1" as="geometry">
            <mxPoint x="90" y="740" as="sourcePoint" />
            <mxPoint x="97" y="469" as="targetPoint" />
          </mxGeometry>
        </mxCell>
        <mxCell id="oJTs6SeQbGOkC4KuSfUN-34" value="" style="endArrow=none;html=1;rounded=0;entryX=0.617;entryY=1;entryDx=0;entryDy=0;shape=link;entryPerimeter=0;" parent="1" source="oJTs6SeQbGOkC4KuSfUN-32" target="oJTs6SeQbGOkC4KuSfUN-1" edge="1">
          <mxGeometry width="50" height="50" relative="1" as="geometry">
            <mxPoint x="-63" y="529" as="sourcePoint" />
            <mxPoint x="147" y="499" as="targetPoint" />
          </mxGeometry>
        </mxCell>
        <mxCell id="oJTs6SeQbGOkC4KuSfUN-35" value="1" style="text;html=1;strokeColor=none;fillColor=none;align=center;verticalAlign=middle;whiteSpace=wrap;rounded=0;fontSize=14;" parent="1" vertex="1">
          <mxGeometry x="157.5" y="670" width="60" height="30" as="geometry" />
        </mxCell>
        <mxCell id="oJTs6SeQbGOkC4KuSfUN-36" value="M" style="text;html=1;strokeColor=none;fillColor=none;align=center;verticalAlign=middle;whiteSpace=wrap;rounded=0;" parent="1" vertex="1">
          <mxGeometry x="97" y="579" width="60" height="30" as="geometry" />
        </mxCell>
        <mxCell id="oJTs6SeQbGOkC4KuSfUN-41" value="Register" style="rhombus;whiteSpace=wrap;html=1;fontSize=14;" parent="1" vertex="1">
          <mxGeometry x="367.5" y="380" width="80" height="80" as="geometry" />
        </mxCell>
        <mxCell id="oJTs6SeQbGOkC4KuSfUN-42" value="" style="endArrow=none;html=1;rounded=0;entryX=1;entryY=0.5;entryDx=0;entryDy=0;exitX=0;exitY=0.5;exitDx=0;exitDy=0;" parent="1" source="oJTs6SeQbGOkC4KuSfUN-41" target="oJTs6SeQbGOkC4KuSfUN-1" edge="1">
          <mxGeometry width="50" height="50" relative="1" as="geometry">
            <mxPoint x="370" y="420" as="sourcePoint" />
            <mxPoint x="420" y="370" as="targetPoint" />
          </mxGeometry>
        </mxCell>
        <mxCell id="oJTs6SeQbGOkC4KuSfUN-43" value="" style="endArrow=none;html=1;rounded=0;entryX=0;entryY=0.5;entryDx=0;entryDy=0;exitX=1;exitY=0.5;exitDx=0;exitDy=0;" parent="1" source="oJTs6SeQbGOkC4KuSfUN-41" target="oJTs6SeQbGOkC4KuSfUN-2" edge="1">
          <mxGeometry width="50" height="50" relative="1" as="geometry">
            <mxPoint x="370" y="420" as="sourcePoint" />
            <mxPoint x="420" y="370" as="targetPoint" />
          </mxGeometry>
        </mxCell>
        <mxCell id="oJTs6SeQbGOkC4KuSfUN-44" value="M" style="text;html=1;strokeColor=none;fillColor=none;align=center;verticalAlign=middle;whiteSpace=wrap;rounded=0;fontSize=14;" parent="1" vertex="1">
          <mxGeometry x="290" y="445" width="60" height="30" as="geometry" />
        </mxCell>
        <mxCell id="oJTs6SeQbGOkC4KuSfUN-45" value="N" style="text;html=1;strokeColor=none;fillColor=none;align=center;verticalAlign=middle;whiteSpace=wrap;rounded=0;fontSize=14;" parent="1" vertex="1">
          <mxGeometry x="449" y="440" width="60" height="30" as="geometry" />
        </mxCell>
        <mxCell id="oJTs6SeQbGOkC4KuSfUN-50" value="No. Of Hours" style="ellipse;whiteSpace=wrap;html=1;fontSize=14;" parent="1" vertex="1">
          <mxGeometry x="880" y="445" width="110" height="50" as="geometry" />
        </mxCell>
        <mxCell id="oJTs6SeQbGOkC4KuSfUN-51" value="" style="endArrow=none;html=1;rounded=0;entryX=0;entryY=0.5;entryDx=0;entryDy=0;exitX=1;exitY=0.5;exitDx=0;exitDy=0;" parent="1" source="oJTs6SeQbGOkC4KuSfUN-2" target="oJTs6SeQbGOkC4KuSfUN-50" edge="1">
          <mxGeometry width="50" height="50" relative="1" as="geometry">
            <mxPoint x="370" y="420" as="sourcePoint" />
            <mxPoint x="420" y="370" as="targetPoint" />
          </mxGeometry>
        </mxCell>
        <mxCell id="oJTs6SeQbGOkC4KuSfUN-53" value="DOB" style="ellipse;whiteSpace=wrap;html=1;fontSize=14;" parent="1" vertex="1">
          <mxGeometry x="-210" y="310" width="110" height="50" as="geometry" />
        </mxCell>
        <mxCell id="oJTs6SeQbGOkC4KuSfUN-54" value="" style="endArrow=none;html=1;rounded=0;exitX=0;exitY=0;exitDx=0;exitDy=0;entryX=1;entryY=1;entryDx=0;entryDy=0;" parent="1" source="oJTs6SeQbGOkC4KuSfUN-1" target="oJTs6SeQbGOkC4KuSfUN-53" edge="1">
          <mxGeometry width="50" height="50" relative="1" as="geometry">
            <mxPoint x="370" y="420" as="sourcePoint" />
            <mxPoint x="-80" y="390" as="targetPoint" />
          </mxGeometry>
        </mxCell>
        <mxCell id="oJTs6SeQbGOkC4KuSfUN-55" value="Phone Number" style="ellipse;whiteSpace=wrap;html=1;fontSize=14;" parent="1" vertex="1">
          <mxGeometry x="-280" y="370" width="110" height="50" as="geometry" />
        </mxCell>
        <mxCell id="oJTs6SeQbGOkC4KuSfUN-57" value="" style="endArrow=none;html=1;rounded=0;exitX=0.005;exitY=0.337;exitDx=0;exitDy=0;exitPerimeter=0;entryX=1;entryY=0.5;entryDx=0;entryDy=0;" parent="1" source="oJTs6SeQbGOkC4KuSfUN-1" target="oJTs6SeQbGOkC4KuSfUN-55" edge="1">
          <mxGeometry width="50" height="50" relative="1" as="geometry">
            <mxPoint x="-30" y="490" as="sourcePoint" />
            <mxPoint x="-165.25" y="400.95000000000005" as="targetPoint" />
          </mxGeometry>
        </mxCell>
        <mxCell id="oJTs6SeQbGOkC4KuSfUN-107" value="" style="shape=table;startSize=0;container=1;collapsible=0;childLayout=tableLayout;fontSize=16;" parent="1" vertex="1">
          <mxGeometry x="17.5" y="1172" width="982.5" height="66" as="geometry" />
        </mxCell>
        <mxCell id="oJTs6SeQbGOkC4KuSfUN-108" value="" style="shape=tableRow;horizontal=0;startSize=0;swimlaneHead=0;swimlaneBody=0;strokeColor=inherit;top=0;left=0;bottom=0;right=0;collapsible=0;dropTarget=0;fillColor=none;points=[[0,0.5],[1,0.5]];portConstraint=eastwest;fontSize=16;" parent="oJTs6SeQbGOkC4KuSfUN-107" vertex="1">
          <mxGeometry width="982.5" height="66" as="geometry" />
        </mxCell>
        <mxCell id="oJTs6SeQbGOkC4KuSfUN-109" value="&lt;u style=&quot;font-size: 16px;&quot;&gt;Student ID&lt;/u&gt;" style="shape=partialRectangle;html=1;whiteSpace=wrap;connectable=0;strokeColor=inherit;overflow=hidden;fillColor=none;top=0;left=0;bottom=0;right=0;pointerEvents=1;fontSize=16;" parent="oJTs6SeQbGOkC4KuSfUN-108" vertex="1">
          <mxGeometry width="138" height="66" as="geometry">
            <mxRectangle width="138" height="66" as="alternateBounds" />
          </mxGeometry>
        </mxCell>
        <mxCell id="oJTs6SeQbGOkC4KuSfUN-110" value="First Name" style="shape=partialRectangle;html=1;whiteSpace=wrap;connectable=0;strokeColor=inherit;overflow=hidden;fillColor=none;top=0;left=0;bottom=0;right=0;pointerEvents=1;fontSize=16;" parent="oJTs6SeQbGOkC4KuSfUN-108" vertex="1">
          <mxGeometry x="138" width="141" height="66" as="geometry">
            <mxRectangle width="141" height="66" as="alternateBounds" />
          </mxGeometry>
        </mxCell>
        <mxCell id="oJTs6SeQbGOkC4KuSfUN-111" value="Last Name" style="shape=partialRectangle;html=1;whiteSpace=wrap;connectable=0;strokeColor=inherit;overflow=hidden;fillColor=none;top=0;left=0;bottom=0;right=0;pointerEvents=1;fontSize=16;" parent="oJTs6SeQbGOkC4KuSfUN-108" vertex="1">
          <mxGeometry x="279" width="138" height="66" as="geometry">
            <mxRectangle width="138" height="66" as="alternateBounds" />
          </mxGeometry>
        </mxCell>
        <mxCell id="oJTs6SeQbGOkC4KuSfUN-112" value="Gender" style="shape=partialRectangle;html=1;whiteSpace=wrap;connectable=0;strokeColor=inherit;overflow=hidden;fillColor=none;top=0;left=0;bottom=0;right=0;pointerEvents=1;fontSize=16;" parent="oJTs6SeQbGOkC4KuSfUN-108" vertex="1">
          <mxGeometry x="417" width="139" height="66" as="geometry">
            <mxRectangle width="139" height="66" as="alternateBounds" />
          </mxGeometry>
        </mxCell>
        <mxCell id="oJTs6SeQbGOkC4KuSfUN-113" value="Email" style="shape=partialRectangle;html=1;whiteSpace=wrap;connectable=0;strokeColor=inherit;overflow=hidden;fillColor=none;top=0;left=0;bottom=0;right=0;pointerEvents=1;fontSize=16;" parent="oJTs6SeQbGOkC4KuSfUN-108" vertex="1">
          <mxGeometry x="556" width="138" height="66" as="geometry">
            <mxRectangle width="138" height="66" as="alternateBounds" />
          </mxGeometry>
        </mxCell>
        <mxCell id="oJTs6SeQbGOkC4KuSfUN-114" value="DOB" style="shape=partialRectangle;html=1;whiteSpace=wrap;connectable=0;strokeColor=inherit;overflow=hidden;fillColor=none;top=0;left=0;bottom=0;right=0;pointerEvents=1;fontSize=16;" parent="oJTs6SeQbGOkC4KuSfUN-108" vertex="1">
          <mxGeometry x="694" width="138" height="66" as="geometry">
            <mxRectangle width="138" height="66" as="alternateBounds" />
          </mxGeometry>
        </mxCell>
        <mxCell id="oJTs6SeQbGOkC4KuSfUN-115" value="Department ID (FK)" style="shape=partialRectangle;html=1;whiteSpace=wrap;connectable=0;strokeColor=inherit;overflow=hidden;fillColor=none;top=0;left=0;bottom=0;right=0;pointerEvents=1;fontSize=16;" parent="oJTs6SeQbGOkC4KuSfUN-108" vertex="1">
          <mxGeometry x="832" width="151" height="66" as="geometry">
            <mxRectangle width="151" height="66" as="alternateBounds" />
          </mxGeometry>
        </mxCell>
        <mxCell id="oJTs6SeQbGOkC4KuSfUN-120" value="Students" style="text;html=1;align=center;verticalAlign=middle;resizable=0;points=[];autosize=1;strokeColor=none;fillColor=none;fontSize=16;" parent="1" vertex="1">
          <mxGeometry y="1130" width="90" height="30" as="geometry" />
        </mxCell>
        <mxCell id="oJTs6SeQbGOkC4KuSfUN-121" value="" style="shape=table;startSize=0;container=1;collapsible=0;childLayout=tableLayout;fontSize=16;" parent="1" vertex="1">
          <mxGeometry x="17.5" y="1724" width="716" height="56" as="geometry" />
        </mxCell>
        <mxCell id="oJTs6SeQbGOkC4KuSfUN-122" value="" style="shape=tableRow;horizontal=0;startSize=0;swimlaneHead=0;swimlaneBody=0;strokeColor=inherit;top=0;left=0;bottom=0;right=0;collapsible=0;dropTarget=0;fillColor=none;points=[[0,0.5],[1,0.5]];portConstraint=eastwest;fontSize=16;" parent="oJTs6SeQbGOkC4KuSfUN-121" vertex="1">
          <mxGeometry width="716" height="56" as="geometry" />
        </mxCell>
        <mxCell id="oJTs6SeQbGOkC4KuSfUN-123" value="&lt;span style=&quot;font-size: 16px;&quot;&gt;Student ID (FK)&lt;/span&gt;" style="shape=partialRectangle;html=1;whiteSpace=wrap;connectable=0;strokeColor=inherit;overflow=hidden;fillColor=none;top=0;left=0;bottom=0;right=0;pointerEvents=1;fontSize=16;" parent="oJTs6SeQbGOkC4KuSfUN-122" vertex="1">
          <mxGeometry width="144" height="56" as="geometry">
            <mxRectangle width="144" height="56" as="alternateBounds" />
          </mxGeometry>
        </mxCell>
        <mxCell id="oJTs6SeQbGOkC4KuSfUN-124" value="Course ID (FK)" style="shape=partialRectangle;html=1;whiteSpace=wrap;connectable=0;strokeColor=inherit;overflow=hidden;fillColor=none;top=0;left=0;bottom=0;right=0;pointerEvents=1;fontSize=16;" parent="oJTs6SeQbGOkC4KuSfUN-122" vertex="1">
          <mxGeometry x="144" width="143" height="56" as="geometry">
            <mxRectangle width="143" height="56" as="alternateBounds" />
          </mxGeometry>
        </mxCell>
        <mxCell id="plOKltYwJ245iS3mtSNx-9" value="Year" style="shape=partialRectangle;html=1;whiteSpace=wrap;connectable=0;strokeColor=inherit;overflow=hidden;fillColor=none;top=0;left=0;bottom=0;right=0;pointerEvents=1;fontSize=16;" parent="oJTs6SeQbGOkC4KuSfUN-122" vertex="1">
          <mxGeometry x="287" width="143" height="56" as="geometry">
            <mxRectangle width="143" height="56" as="alternateBounds" />
          </mxGeometry>
        </mxCell>
        <mxCell id="plOKltYwJ245iS3mtSNx-10" value="Semester" style="shape=partialRectangle;html=1;whiteSpace=wrap;connectable=0;strokeColor=inherit;overflow=hidden;fillColor=none;top=0;left=0;bottom=0;right=0;pointerEvents=1;fontSize=16;" parent="oJTs6SeQbGOkC4KuSfUN-122" vertex="1">
          <mxGeometry x="430" width="143" height="56" as="geometry">
            <mxRectangle width="143" height="56" as="alternateBounds" />
          </mxGeometry>
        </mxCell>
        <mxCell id="U_wG_BXwLmH3CZJDtiJK-3" value="Grade" style="shape=partialRectangle;html=1;whiteSpace=wrap;connectable=0;strokeColor=inherit;overflow=hidden;fillColor=none;top=0;left=0;bottom=0;right=0;pointerEvents=1;fontSize=16;" parent="oJTs6SeQbGOkC4KuSfUN-122" vertex="1">
          <mxGeometry x="573" width="143" height="56" as="geometry">
            <mxRectangle width="143" height="56" as="alternateBounds" />
          </mxGeometry>
        </mxCell>
        <mxCell id="oJTs6SeQbGOkC4KuSfUN-125" value="Student Register Course" style="text;html=1;align=center;verticalAlign=middle;resizable=0;points=[];autosize=1;strokeColor=none;fillColor=none;fontSize=16;" parent="1" vertex="1">
          <mxGeometry x="17.5" y="1680" width="200" height="30" as="geometry" />
        </mxCell>
        <mxCell id="oJTs6SeQbGOkC4KuSfUN-126" value="Courses" style="text;html=1;align=center;verticalAlign=middle;resizable=0;points=[];autosize=1;strokeColor=none;fillColor=none;fontSize=16;" parent="1" vertex="1">
          <mxGeometry x="7.5" y="1280" width="80" height="30" as="geometry" />
        </mxCell>
        <mxCell id="oJTs6SeQbGOkC4KuSfUN-127" value="" style="shape=table;startSize=0;container=1;collapsible=0;childLayout=tableLayout;fontSize=16;" parent="1" vertex="1">
          <mxGeometry x="17.5" y="1319" width="485.5" height="58" as="geometry" />
        </mxCell>
        <mxCell id="oJTs6SeQbGOkC4KuSfUN-128" value="" style="shape=tableRow;horizontal=0;startSize=0;swimlaneHead=0;swimlaneBody=0;strokeColor=inherit;top=0;left=0;bottom=0;right=0;collapsible=0;dropTarget=0;fillColor=none;points=[[0,0.5],[1,0.5]];portConstraint=eastwest;fontSize=16;" parent="oJTs6SeQbGOkC4KuSfUN-127" vertex="1">
          <mxGeometry width="485.5" height="58" as="geometry" />
        </mxCell>
        <mxCell id="oJTs6SeQbGOkC4KuSfUN-129" value="&lt;u style=&quot;font-size: 16px;&quot;&gt;Course ID&lt;/u&gt;" style="shape=partialRectangle;html=1;whiteSpace=wrap;connectable=0;strokeColor=inherit;overflow=hidden;fillColor=none;top=0;left=0;bottom=0;right=0;pointerEvents=1;fontSize=16;" parent="oJTs6SeQbGOkC4KuSfUN-128" vertex="1">
          <mxGeometry width="162" height="58" as="geometry">
            <mxRectangle width="162" height="58" as="alternateBounds" />
          </mxGeometry>
        </mxCell>
        <mxCell id="oJTs6SeQbGOkC4KuSfUN-130" value="Course Name" style="shape=partialRectangle;html=1;whiteSpace=wrap;connectable=0;strokeColor=inherit;overflow=hidden;fillColor=none;top=0;left=0;bottom=0;right=0;pointerEvents=1;fontSize=16;" parent="oJTs6SeQbGOkC4KuSfUN-128" vertex="1">
          <mxGeometry x="162" width="162" height="58" as="geometry">
            <mxRectangle width="162" height="58" as="alternateBounds" />
          </mxGeometry>
        </mxCell>
        <mxCell id="oJTs6SeQbGOkC4KuSfUN-131" value="No. Of Hours" style="shape=partialRectangle;html=1;whiteSpace=wrap;connectable=0;strokeColor=inherit;overflow=hidden;fillColor=none;top=0;left=0;bottom=0;right=0;pointerEvents=1;fontSize=16;" parent="oJTs6SeQbGOkC4KuSfUN-128" vertex="1">
          <mxGeometry x="324" width="162" height="58" as="geometry">
            <mxRectangle width="162" height="58" as="alternateBounds" />
          </mxGeometry>
        </mxCell>
        <mxCell id="oJTs6SeQbGOkC4KuSfUN-145" value="" style="endArrow=none;dashed=1;html=1;dashPattern=1 3;strokeWidth=2;rounded=0;" parent="1" edge="1">
          <mxGeometry width="50" height="50" relative="1" as="geometry">
            <mxPoint x="57.5" y="1765" as="sourcePoint" />
            <mxPoint x="122.5" y="1765.42" as="targetPoint" />
          </mxGeometry>
        </mxCell>
        <mxCell id="oJTs6SeQbGOkC4KuSfUN-146" value="" style="endArrow=none;dashed=1;html=1;dashPattern=1 3;strokeWidth=2;rounded=0;" parent="1" edge="1">
          <mxGeometry width="50" height="50" relative="1" as="geometry">
            <mxPoint x="199.5" y="1767" as="sourcePoint" />
            <mxPoint x="264.5" y="1767.42" as="targetPoint" />
          </mxGeometry>
        </mxCell>
        <mxCell id="oJTs6SeQbGOkC4KuSfUN-147" value="" style="endArrow=none;html=1;rounded=0;" parent="1" edge="1">
          <mxGeometry width="50" height="50" relative="1" as="geometry">
            <mxPoint x="31" y="1773.17" as="sourcePoint" />
            <mxPoint x="570" y="1773" as="targetPoint" />
          </mxGeometry>
        </mxCell>
        <mxCell id="oJTs6SeQbGOkC4KuSfUN-148" value="" style="endArrow=none;dashed=1;html=1;dashPattern=1 3;strokeWidth=2;rounded=0;" parent="1" edge="1">
          <mxGeometry width="50" height="50" relative="1" as="geometry">
            <mxPoint x="870" y="1224" as="sourcePoint" />
            <mxPoint x="978" y="1224" as="targetPoint" />
          </mxGeometry>
        </mxCell>
        <mxCell id="oJTs6SeQbGOkC4KuSfUN-243" value="Departments" style="text;html=1;align=center;verticalAlign=middle;resizable=0;points=[];autosize=1;strokeColor=none;fillColor=none;fontSize=16;" parent="1" vertex="1">
          <mxGeometry y="1400" width="120" height="30" as="geometry" />
        </mxCell>
        <mxCell id="oJTs6SeQbGOkC4KuSfUN-244" value="" style="shape=table;startSize=0;container=1;collapsible=0;childLayout=tableLayout;fontSize=16;" parent="1" vertex="1">
          <mxGeometry x="22.5" y="1439" width="323.5" height="58" as="geometry" />
        </mxCell>
        <mxCell id="oJTs6SeQbGOkC4KuSfUN-245" value="" style="shape=tableRow;horizontal=0;startSize=0;swimlaneHead=0;swimlaneBody=0;strokeColor=inherit;top=0;left=0;bottom=0;right=0;collapsible=0;dropTarget=0;fillColor=none;points=[[0,0.5],[1,0.5]];portConstraint=eastwest;fontSize=16;" parent="oJTs6SeQbGOkC4KuSfUN-244" vertex="1">
          <mxGeometry width="323.5" height="58" as="geometry" />
        </mxCell>
        <mxCell id="oJTs6SeQbGOkC4KuSfUN-246" value="&lt;u&gt;Department_id&lt;/u&gt;" style="shape=partialRectangle;html=1;whiteSpace=wrap;connectable=0;strokeColor=inherit;overflow=hidden;fillColor=none;top=0;left=0;bottom=0;right=0;pointerEvents=1;fontSize=16;" parent="oJTs6SeQbGOkC4KuSfUN-245" vertex="1">
          <mxGeometry width="162" height="58" as="geometry">
            <mxRectangle width="162" height="58" as="alternateBounds" />
          </mxGeometry>
        </mxCell>
        <mxCell id="oJTs6SeQbGOkC4KuSfUN-247" value="Department Name" style="shape=partialRectangle;html=1;whiteSpace=wrap;connectable=0;strokeColor=inherit;overflow=hidden;fillColor=none;top=0;left=0;bottom=0;right=0;pointerEvents=1;fontSize=16;" parent="oJTs6SeQbGOkC4KuSfUN-245" vertex="1">
          <mxGeometry x="162" width="162" height="58" as="geometry">
            <mxRectangle width="162" height="58" as="alternateBounds" />
          </mxGeometry>
        </mxCell>
        <mxCell id="plOKltYwJ245iS3mtSNx-5" value="Year" style="ellipse;whiteSpace=wrap;html=1;fontSize=14;" parent="1" vertex="1">
          <mxGeometry x="250" y="280" width="110" height="50" as="geometry" />
        </mxCell>
        <mxCell id="plOKltYwJ245iS3mtSNx-6" value="Semester" style="ellipse;whiteSpace=wrap;html=1;fontSize=14;" parent="1" vertex="1">
          <mxGeometry x="352.5" y="240" width="110" height="50" as="geometry" />
        </mxCell>
        <mxCell id="plOKltYwJ245iS3mtSNx-7" value="" style="endArrow=none;html=1;rounded=0;entryX=0.5;entryY=0;entryDx=0;entryDy=0;" parent="1" source="plOKltYwJ245iS3mtSNx-5" target="oJTs6SeQbGOkC4KuSfUN-41" edge="1">
          <mxGeometry width="50" height="50" relative="1" as="geometry">
            <mxPoint x="254" y="461" as="sourcePoint" />
            <mxPoint x="304" y="411" as="targetPoint" />
          </mxGeometry>
        </mxCell>
        <mxCell id="plOKltYwJ245iS3mtSNx-8" value="" style="endArrow=none;html=1;rounded=0;entryX=0.5;entryY=0;entryDx=0;entryDy=0;" parent="1" source="plOKltYwJ245iS3mtSNx-6" target="oJTs6SeQbGOkC4KuSfUN-41" edge="1">
          <mxGeometry width="50" height="50" relative="1" as="geometry">
            <mxPoint x="254" y="461" as="sourcePoint" />
            <mxPoint x="304" y="411" as="targetPoint" />
          </mxGeometry>
        </mxCell>
        <mxCell id="U_wG_BXwLmH3CZJDtiJK-1" value="&lt;span style=&quot;font-size: 14px;&quot;&gt;Grade&lt;/span&gt;" style="ellipse;whiteSpace=wrap;html=1;fontSize=14;" parent="1" vertex="1">
          <mxGeometry x="462.5" y="280" width="110" height="50" as="geometry" />
        </mxCell>
        <mxCell id="U_wG_BXwLmH3CZJDtiJK-2" value="" style="endArrow=none;html=1;rounded=0;entryX=0.5;entryY=0;entryDx=0;entryDy=0;exitX=0.218;exitY=0.96;exitDx=0;exitDy=0;exitPerimeter=0;" parent="1" source="U_wG_BXwLmH3CZJDtiJK-1" target="oJTs6SeQbGOkC4KuSfUN-41" edge="1">
          <mxGeometry width="50" height="50" relative="1" as="geometry">
            <mxPoint x="254" y="331" as="sourcePoint" />
            <mxPoint x="304" y="281" as="targetPoint" />
          </mxGeometry>
        </mxCell>
        <mxCell id="LMhOHuejEdXJFs-MMuxq-1" value="Department Has Courses" style="text;html=1;align=center;verticalAlign=middle;resizable=0;points=[];autosize=1;strokeColor=none;fillColor=none;fontSize=16;" parent="1" vertex="1">
          <mxGeometry x="7.5" y="1550" width="200" height="30" as="geometry" />
        </mxCell>
        <mxCell id="LMhOHuejEdXJFs-MMuxq-2" value="" style="shape=table;startSize=0;container=1;collapsible=0;childLayout=tableLayout;fontSize=16;" parent="1" vertex="1">
          <mxGeometry x="30" y="1589" width="323.5" height="58" as="geometry" />
        </mxCell>
        <mxCell id="LMhOHuejEdXJFs-MMuxq-3" value="" style="shape=tableRow;horizontal=0;startSize=0;swimlaneHead=0;swimlaneBody=0;strokeColor=inherit;top=0;left=0;bottom=0;right=0;collapsible=0;dropTarget=0;fillColor=none;points=[[0,0.5],[1,0.5]];portConstraint=eastwest;fontSize=16;" parent="LMhOHuejEdXJFs-MMuxq-2" vertex="1">
          <mxGeometry width="323.5" height="58" as="geometry" />
        </mxCell>
        <mxCell id="LMhOHuejEdXJFs-MMuxq-4" value="Department_id (FK)" style="shape=partialRectangle;html=1;whiteSpace=wrap;connectable=0;strokeColor=inherit;overflow=hidden;fillColor=none;top=0;left=0;bottom=0;right=0;pointerEvents=1;fontSize=16;" parent="LMhOHuejEdXJFs-MMuxq-3" vertex="1">
          <mxGeometry width="162" height="58" as="geometry">
            <mxRectangle width="162" height="58" as="alternateBounds" />
          </mxGeometry>
        </mxCell>
        <mxCell id="LMhOHuejEdXJFs-MMuxq-5" value="Course ID (FK)" style="shape=partialRectangle;html=1;whiteSpace=wrap;connectable=0;strokeColor=inherit;overflow=hidden;fillColor=none;top=0;left=0;bottom=0;right=0;pointerEvents=1;fontSize=16;" parent="LMhOHuejEdXJFs-MMuxq-3" vertex="1">
          <mxGeometry x="162" width="162" height="58" as="geometry">
            <mxRectangle width="162" height="58" as="alternateBounds" />
          </mxGeometry>
        </mxCell>
        <mxCell id="LMhOHuejEdXJFs-MMuxq-6" value="" style="endArrow=none;html=1;rounded=0;exitX=0.031;exitY=0.879;exitDx=0;exitDy=0;exitPerimeter=0;entryX=0.927;entryY=0.879;entryDx=0;entryDy=0;entryPerimeter=0;" parent="LMhOHuejEdXJFs-MMuxq-2" edge="1">
          <mxGeometry width="50" height="50" relative="1" as="geometry">
            <mxPoint x="10.02850000000035" y="45.982000000000426" as="sourcePoint" />
            <mxPoint x="299.8845000000001" y="45.982000000000426" as="targetPoint" />
          </mxGeometry>
        </mxCell>
      </root>
    </mxGraphModel>
  </diagram>
</mxfile>
